<svg width="54" height="54" viewBox="0 0 54 54" fill="none" xmlns="http://www.w3.org/2000/svg">
<rect x="0.5" y="0.5" width="53" height="53" rx="26.5" fill="white" fill-opacity="0.4"/>
<g clip-path="url(#clip0_907_20712)">
<path d="M19.7812 35.0001C19.6266 35.0001 19.4755 34.9543 19.347 34.8685C19.2185 34.7826 19.1184 34.6606 19.0592 34.5178C19.0001 34.3751 18.9846 34.218 19.0148 34.0664C19.0449 33.9148 19.1194 33.7756 19.2287 33.6664L33.6662 19.2289C33.8127 19.0823 34.0114 19 34.2187 19C34.4259 19 34.6246 19.0823 34.7712 19.2289C34.9177 19.3754 35 19.5741 35 19.7814C35 19.9886 34.9177 20.1873 34.7712 20.3339L20.3337 34.7714C20.2612 34.844 20.175 34.9016 20.0802 34.9408C19.9854 34.9801 19.8838 35.0002 19.7812 35.0001Z" fill="#666464"/>
<path d="M34.2186 35.0001C34.116 35.0002 34.0144 34.9801 33.9195 34.9408C33.8247 34.9016 33.7386 34.844 33.6661 34.7714L19.2286 20.3339C19.0821 20.1873 18.9998 19.9886 18.9998 19.7814C18.9998 19.5741 19.0821 19.3754 19.2286 19.2289C19.3751 19.0823 19.5739 19 19.7811 19C19.9883 19 20.1871 19.0823 20.3336 19.2289L34.7711 33.6664C34.8804 33.7756 34.9548 33.9148 34.985 34.0664C35.0151 34.218 34.9997 34.3751 34.9405 34.5178C34.8814 34.6606 34.7812 34.7826 34.6527 34.8685C34.5242 34.9543 34.3731 35.0001 34.2186 35.0001Z" fill="#666464"/>
</g>
<rect x="0.5" y="0.5" width="53" height="53" rx="26.5" stroke="#DADADA"/>
<defs>
<clipPath id="clip0_907_20712">
<rect width="16" height="16" fill="white" transform="translate(19 19)"/>
</clipPath>
</defs>
</svg>
