<svg width="42" height="42" viewBox="0 0 42 42" fill="none" xmlns="http://www.w3.org/2000/svg">
<path d="M21 8C13.8318 8 8 13.8318 8 21C8 28.1676 13.8318 34 21 34C28.1676 34 34 28.1676 34 21C34 13.8318 28.1687 8 21 8ZM24.233 21.4577H22.118V28.9961H18.984C18.984 28.9961 18.984 24.8771 18.984 21.4577H17.4942V18.7934H18.984V17.07C18.984 15.8358 19.5705 13.9072 22.1468 13.9072L24.4691 13.9161V16.5024C24.4691 16.5024 23.0579 16.5024 22.7835 16.5024C22.5091 16.5024 22.119 16.6396 22.119 17.2282V18.7939H24.5068L24.233 21.4577Z" fill="#C6B89E"/>
<rect x="0.5" y="0.5" width="41" height="41" rx="9.5" stroke="#C6B89E"/>
</svg>
