<svg width="120" height="29" viewBox="0 0 120 29" fill="none" xmlns="http://www.w3.org/2000/svg">
<path fill-rule="evenodd" clip-rule="evenodd" d="M29.9388 0.240211C30.8268 0.0800702 31.8013 0 32.8622 0C34.9841 0 36.7485 0.297403 38.1555 0.89221C39.5624 1.48702 40.6176 2.30488 41.321 3.34579C42.0245 4.3867 42.3762 5.58204 42.3762 6.93179C42.3762 7.66386 42.2667 8.37305 42.0476 9.05937C41.8284 9.73425 41.4825 10.3691 41.0097 10.9639C40.5368 11.5473 39.9256 12.062 39.1761 12.5081C38.4265 12.9428 37.527 13.2802 36.4775 13.5204C35.4396 13.7721 34.2345 13.8979 32.8622 13.8979C31.882 13.8979 30.9825 13.8293 30.1637 13.692C29.3565 13.5662 28.6242 13.3889 27.9668 13.1601C27.3095 12.9199 26.7271 12.6339 26.2197 12.3022C25.7238 11.9705 25.2914 11.6045 24.9224 11.2041C24.5649 10.7923 24.265 10.3577 24.0229 9.90011C23.7922 9.44256 23.6192 8.96214 23.5039 8.45884C23.4001 7.95555 23.3482 7.44653 23.3482 6.93179C23.3482 6.25691 23.4347 5.61635 23.6077 5.01011C23.7922 4.40386 24.0574 3.84337 24.4034 3.32863C24.7609 2.8139 25.1991 2.35635 25.7181 1.956C26.2485 1.54421 26.8655 1.19533 27.569 0.909368C28.2724 0.611965 29.0624 0.388912 29.9388 0.240211ZM33.9001 5.59347C33.6233 5.50197 33.2831 5.45621 32.8795 5.45621C32.4759 5.45621 32.1299 5.50197 31.8416 5.59347C31.5649 5.67355 31.34 5.78793 31.167 5.93663C31.0055 6.0739 30.8845 6.23404 30.8037 6.41705C30.7345 6.58863 30.6999 6.76593 30.6999 6.94895C30.6999 7.18916 30.7691 7.42365 30.9075 7.65242C31.0459 7.8812 31.2766 8.06993 31.5995 8.21863C31.9224 8.36734 32.349 8.44169 32.8795 8.44169C33.1909 8.44169 33.4619 8.41309 33.6925 8.3559C33.9347 8.2987 34.1365 8.22435 34.298 8.13284C34.471 8.0299 34.6093 7.91551 34.7131 7.78969C34.8284 7.65242 34.9092 7.51516 34.9553 7.3779C35.0014 7.22919 35.0245 7.08049 35.0245 6.93179C35.0245 6.76021 34.9841 6.58863 34.9034 6.41705C34.8342 6.24547 34.7189 6.09105 34.5574 5.95379C34.396 5.80509 34.1769 5.68498 33.9001 5.59347ZM23.8023 0.514736H16.7965C16.6236 1.69291 16.4448 2.86537 16.2603 4.03211C16.0873 5.19884 15.9143 6.3713 15.7413 7.54948H15.724H15.7067L14.6862 0.514736H9.4794L8.51071 7.54948H8.49341H8.47611H8.44151H8.42421C8.34349 6.96611 8.257 6.38274 8.16474 5.79937C8.07248 5.20456 7.98023 4.61547 7.88797 4.03211C7.80725 3.44874 7.72076 2.86537 7.6285 2.282C7.54777 1.68719 7.46128 1.0981 7.36903 0.514736H0L0.622735 3.08842C0.841845 3.94632 1.05519 4.80421 1.26277 5.66211L1.8855 8.23579C2.10461 9.09369 2.31796 9.95158 2.52553 10.8095L3.14827 13.3832H10.6557L11.6763 6.93179V6.91463L11.6936 6.89748H11.7109V6.91463C11.7224 6.91463 11.7282 6.92035 11.7282 6.93179L12.7661 13.3832H20.8097C21.0519 12.3079 21.2941 11.2384 21.5362 10.1746L22.2974 6.94895C22.5511 5.87372 22.799 4.80421 23.0412 3.74042L23.8023 0.514736ZM53.1204 0.514736H59.7802V1.80158V3.08842V4.37526V5.66211V6.94895V10.1746V13.3832H51.7712L49.5916 7.20632C49.5916 7.19488 49.5858 7.18916 49.5743 7.18916H49.557V7.20632V10.2947V13.3832H42.8972V10.8095V8.23579V5.66211V3.08842V0.514736H50.6468L53.0858 7.63526H53.1031H53.1204V7.61811V0.514736ZM73.6469 0.875053C72.8166 0.634842 71.8594 0.514736 70.7754 0.514736H60.4657V2.59084V4.64979V6.846V9.02505V11.2041V13.3832H70.7754C72.1131 13.3832 73.2606 13.2001 74.2177 12.8341C75.1864 12.4681 75.9764 11.9762 76.5876 11.3585C77.2103 10.7408 77.6658 10.0488 77.9541 9.28242C78.254 8.5046 78.4039 7.70962 78.4039 6.89748C78.4039 6.25691 78.3116 5.62779 78.1271 5.01011C77.9426 4.39242 77.66 3.81477 77.2795 3.27716C76.8989 2.72811 76.4088 2.24768 75.8091 1.83589C75.2095 1.42411 74.4887 1.10382 73.6469 0.875053ZM67.333 5.45621H69.3915C69.749 5.45621 70.0489 5.52484 70.291 5.66211C70.5332 5.78793 70.7177 5.96523 70.8446 6.194C70.9829 6.42277 71.0521 6.67442 71.0521 6.94895C71.0521 7.14341 71.0118 7.33214 70.9311 7.51516C70.8619 7.69818 70.7581 7.85832 70.6197 7.99558C70.4813 8.13284 70.3083 8.24151 70.1007 8.32158C69.9047 8.40165 69.6798 8.44169 69.4261 8.44169H67.333H67.3157V8.40737V5.49053V5.47337V5.45621H67.333ZM93.4772 4.83853H85.9525H85.9352V5.78221V5.81653H85.9525H93.2177V8.23579H85.9525H85.9352V8.25295V8.27011V9.23095H85.9525H93.581V13.3832H78.9294V11.3585V9.31674V7.29211V5.25032V3.20853V1.87021V0.514736H93.4772V4.83853ZM106.741 0.514736H94.2343V2.53937V4.564V6.77737V8.97358V11.1869V13.3832H101.413V12.1478V10.7752V9.52263V8.81916V8.33874V8.15V8.13284C101.644 8.71621 101.869 9.29958 102.088 9.88295C102.318 10.4663 102.543 11.0497 102.762 11.6331C102.993 12.2164 103.218 12.7998 103.437 13.3832H111.654L108.99 8.28726H105.063V8.27011V8.25295V8.23579V8.21863H105.426H105.997H106.343C107.439 8.21863 108.35 8.02418 109.076 7.63526C109.814 7.24635 110.362 6.74877 110.719 6.14253C111.088 5.52484 111.273 4.89 111.273 4.238C111.273 3.60888 111.106 3.01407 110.771 2.45358C110.437 1.88165 109.935 1.41839 109.266 1.06379C108.598 0.697754 107.756 0.514736 106.741 0.514736ZM101.413 8.13284V8.06421V7.41221V5.76505V5.7479H101.43L101.448 5.73074H103.42C103.731 5.73074 103.99 5.78793 104.198 5.90232C104.406 6.0167 104.561 6.1654 104.665 6.34842C104.769 6.53144 104.821 6.7259 104.821 6.93179C104.821 7.08049 104.792 7.22919 104.734 7.3779C104.677 7.51516 104.59 7.64098 104.475 7.75537C104.359 7.86976 104.21 7.96126 104.025 8.0299C103.852 8.09853 103.65 8.13284 103.42 8.13284H101.413ZM21.3609 14.9902H28.7597L27.9559 18.474C27.7001 19.6229 27.4383 20.7779 27.1703 21.9392L26.3665 25.4229C26.1108 26.5718 25.855 27.7269 25.5992 28.8881H17.1043L16.0082 21.9207C16.0082 21.9083 16.0021 21.9021 15.9899 21.9021V21.8836H15.9717L15.9534 21.9021V21.9207L14.8755 28.8881H6.94694L6.28926 26.1086C6.07004 25.182 5.84473 24.2555 5.61332 23.329L4.95565 20.5494C4.73643 19.6229 4.51111 18.6963 4.27971 17.7698L3.62204 14.9902H11.4045C11.5019 15.6203 11.5933 16.2565 11.6785 16.8989C11.776 17.5289 11.8673 18.159 11.9525 18.789C12.05 19.419 12.1474 20.0552 12.2448 20.6976C12.3423 21.3277 12.4336 21.9577 12.5189 22.5878H12.5371H12.5737H12.592H12.6102L13.6333 14.9902H19.1321L20.21 22.5878H20.2282H20.2465C20.4292 21.3153 20.6119 20.0491 20.7946 18.789C20.9894 17.5289 21.1782 16.2627 21.3609 14.9902ZM44.5582 19.6599H36.6114H36.5931V20.6791V20.7162H36.6114H44.2842V23.329H36.6114H36.5931V23.3475V23.366V24.4037H36.6114H44.6679V28.8881H29.1943V26.7015V24.4964V22.3098V20.1047V17.8995V16.4541V14.9902H44.5582V19.6599ZM59.7352 14.9902H45.3578V16.9174V18.8446V21.3647V23.8664V26.3865V28.8881H59.7352C60.4294 28.8881 61.0384 28.7893 61.5621 28.5916C62.0858 28.3816 62.5242 28.1037 62.8774 27.7578C63.2306 27.3995 63.4925 27.0042 63.663 26.5718C63.8457 26.1394 63.937 25.6947 63.937 25.2376C63.937 24.6199 63.7787 24.0331 63.462 23.4772C63.1454 22.9213 62.6643 22.4642 62.0188 22.106C61.3733 21.7477 60.5573 21.5686 59.5708 21.5686H59.5525V21.55H59.5708C60.4233 21.55 61.1297 21.3894 61.69 21.0682C62.2624 20.7471 62.6887 20.3332 62.9688 19.8267C63.2489 19.3078 63.3889 18.7766 63.3889 18.2331C63.3889 17.6895 63.2489 17.1707 62.9688 16.6765C62.7008 16.1824 62.2989 15.7809 61.763 15.472C61.2272 15.1508 60.5512 14.9902 59.7352 14.9902ZM52.5556 22.6989V22.2913L52.5739 22.2727H55.3325C55.4664 22.2727 55.5821 22.2974 55.6796 22.3469C55.7892 22.3839 55.8744 22.4457 55.9353 22.5322C56.0084 22.6063 56.0632 22.6928 56.0998 22.7916C56.1363 22.8781 56.1546 22.9769 56.1546 23.0881C56.1546 23.3104 56.0693 23.5081 55.8988 23.6811C55.7405 23.854 55.4969 23.9405 55.1681 23.9405H52.5739H52.5556V23.9219V23.6625V23.4031V23.1066V22.6989ZM52.5556 19.697C52.5556 19.6846 52.5617 19.6785 52.5739 19.6785H55.2411C55.5091 19.6785 55.71 19.7649 55.844 19.9379C55.9901 20.0985 56.0632 20.2838 56.0632 20.4938C56.0632 20.642 56.0267 20.7841 55.9536 20.92C55.8805 21.0435 55.7709 21.1485 55.6248 21.235C55.4786 21.3091 55.2959 21.3462 55.0767 21.3462H52.5739H52.5556V21.3277V20.9385V20.5123V20.2344V19.9564V19.697Z" fill="#A5A2A2"/>
<path d="M66.991 21.2677C66.6079 21.2677 66.2697 21.173 65.9763 20.9837C65.683 20.7924 65.4535 20.523 65.2879 20.1756C65.1222 19.8262 65.0394 19.4134 65.0394 18.9371C65.0394 18.4647 65.1222 18.0548 65.2879 17.7074C65.4535 17.3599 65.684 17.0915 65.9793 16.9022C66.2746 16.7128 66.6159 16.6182 67.003 16.6182C67.3023 16.6182 67.5388 16.667 67.7124 16.7646C67.888 16.8602 68.0217 16.9695 68.1135 17.0925C68.2073 17.2135 68.2801 17.3131 68.332 17.3911H68.3919V15.1776H69.0983V21.174H68.4158V20.483H68.332C68.2801 20.565 68.2063 20.6685 68.1105 20.7934C68.0147 20.9164 67.878 21.0266 67.7004 21.1242C67.5228 21.2199 67.2864 21.2677 66.991 21.2677ZM67.0868 20.647C67.3702 20.647 67.6096 20.5748 67.8052 20.4303C68.0008 20.2839 68.1494 20.0819 68.2512 19.8242C68.353 19.5646 68.4038 19.265 68.4038 18.9254C68.4038 18.5896 68.354 18.2959 68.2542 18.0441C68.1544 17.7903 68.0067 17.5932 67.8112 17.4526C67.6156 17.3101 67.3742 17.2389 67.0868 17.2389C66.7875 17.2389 66.5381 17.314 66.3385 17.4643C66.1409 17.6127 65.9923 17.8147 65.8925 18.0704C65.7947 18.3242 65.7458 18.6092 65.7458 18.9254C65.7458 19.2455 65.7957 19.5363 65.8955 19.7979C65.9973 20.0575 66.1469 20.2644 66.3445 20.4186C66.544 20.5709 66.7915 20.647 67.0868 20.647Z" fill="#A5A2A2"/>
<path d="M70.4901 21.174V16.6767H71.1966V21.174H70.4901ZM70.8493 15.9272C70.7116 15.9272 70.5929 15.8813 70.4931 15.7896C70.3954 15.6978 70.3465 15.5875 70.3465 15.4587C70.3465 15.3299 70.3954 15.2196 70.4931 15.1278C70.5929 15.0361 70.7116 14.9902 70.8493 14.9902C70.987 14.9902 71.1048 15.0361 71.2025 15.1278C71.3023 15.2196 71.3522 15.3299 71.3522 15.4587C71.3522 15.5875 71.3023 15.6978 71.2025 15.7896C71.1048 15.8813 70.987 15.9272 70.8493 15.9272Z" fill="#A5A2A2"/>
<path d="M74.3462 22.9542C74.005 22.9542 73.7116 22.9113 73.4662 22.8254C73.2207 22.7414 73.0162 22.6302 72.8526 22.4916C72.6909 22.3549 72.5622 22.2086 72.4664 22.0524L73.0292 21.6659C73.093 21.7479 73.1738 21.8416 73.2716 21.947C73.3694 22.0543 73.5031 22.1471 73.6727 22.2251C73.8443 22.3052 74.0688 22.3452 74.3462 22.3452C74.7174 22.3452 75.0237 22.2574 75.2651 22.0817C75.5066 21.906 75.6273 21.6308 75.6273 21.256V20.3425H75.5674C75.5156 20.4245 75.4417 20.526 75.3459 20.647C75.2522 20.7661 75.1165 20.8724 74.9389 20.9661C74.7633 21.0579 74.5258 21.1037 74.2265 21.1037C73.8553 21.1037 73.5221 21.0179 73.2267 20.8461C72.9334 20.6743 72.7009 20.4245 72.5293 20.0965C72.3597 19.7686 72.2749 19.3704 72.2749 18.9019C72.2749 18.4413 72.3577 18.0402 72.5233 17.6986C72.6889 17.355 72.9194 17.0896 73.2148 16.9022C73.5101 16.7128 73.8513 16.6182 74.2384 16.6182C74.5378 16.6182 74.7752 16.667 74.9508 16.7646C75.1284 16.8602 75.2641 16.9695 75.3579 17.0925C75.4537 17.2135 75.5275 17.3131 75.5794 17.3911H75.6513V16.6767H76.3337V21.3028C76.3337 21.6893 76.2439 22.0036 76.0643 22.2456C75.8867 22.4896 75.6473 22.6682 75.3459 22.7815C75.0466 22.8966 74.7134 22.9542 74.3462 22.9542ZM74.3223 20.483C74.6056 20.483 74.8451 20.4196 75.0406 20.2927C75.2362 20.1658 75.3849 19.9833 75.4866 19.7452C75.5884 19.5071 75.6393 19.2221 75.6393 18.8902C75.6393 18.5662 75.5894 18.2802 75.4896 18.0324C75.3899 17.7845 75.2422 17.5902 75.0466 17.4497C74.8511 17.3092 74.6096 17.2389 74.3223 17.2389C74.0229 17.2389 73.7735 17.3131 73.5739 17.4614C73.3764 17.6098 73.2277 17.8089 73.1279 18.0587C73.0302 18.3086 72.9813 18.5857 72.9813 18.8902C72.9813 19.2025 73.0312 19.4787 73.1309 19.7188C73.2327 19.957 73.3824 20.1444 73.5799 20.281C73.7795 20.4157 74.0269 20.483 74.3223 20.483Z" fill="#A5A2A2"/>
<path d="M77.6268 21.174V16.6767H78.3332V21.174H77.6268ZM77.986 15.9272C77.8483 15.9272 77.7296 15.8813 77.6298 15.7896C77.532 15.6978 77.4831 15.5875 77.4831 15.4587C77.4831 15.3299 77.532 15.2196 77.6298 15.1278C77.7296 15.0361 77.8483 14.9902 77.986 14.9902C78.1237 14.9902 78.2414 15.0361 78.3392 15.1278C78.439 15.2196 78.4889 15.3299 78.4889 15.4587C78.4889 15.5875 78.439 15.6978 78.3392 15.7896C78.2414 15.8813 78.1237 15.9272 77.986 15.9272Z" fill="#A5A2A2"/>
<path d="M81.6265 16.6767V17.2623H79.2439V16.6767H81.6265ZM79.9383 15.5992H80.6448V19.8857C80.6448 20.0809 80.6737 20.2273 80.7316 20.3249C80.7914 20.4206 80.8673 20.485 80.959 20.5182C81.0528 20.5494 81.1516 20.565 81.2554 20.565C81.3332 20.565 81.3971 20.5611 81.4469 20.5533C81.4968 20.5435 81.5367 20.5357 81.5667 20.5299L81.7104 21.1506C81.6625 21.1682 81.5956 21.1857 81.5098 21.2033C81.424 21.2228 81.3152 21.2326 81.1835 21.2326C80.984 21.2326 80.7884 21.1906 80.5969 21.1067C80.4073 21.0227 80.2496 20.8949 80.1239 20.7231C80.0002 20.5513 79.9383 20.3347 79.9383 20.0731V15.5992Z" fill="#A5A2A2"/>
<path d="M84.0421 21.2794C83.7508 21.2794 83.4864 21.2257 83.2489 21.1184C83.0114 21.0091 82.8228 20.8519 82.6832 20.647C82.5435 20.4401 82.4736 20.1902 82.4736 19.8974C82.4736 19.6398 82.5255 19.4309 82.6293 19.2709C82.733 19.1089 82.8717 18.982 83.0453 18.8902C83.219 18.7985 83.4105 18.7302 83.6201 18.6853C83.8316 18.6384 84.0441 18.6013 84.2576 18.574C84.537 18.5389 84.7635 18.5125 84.9371 18.495C85.1127 18.4754 85.2404 18.4432 85.3202 18.3983C85.402 18.3534 85.4429 18.2754 85.4429 18.1641V18.1407C85.4429 17.8518 85.3621 17.6273 85.2005 17.4673C85.0408 17.3072 84.7984 17.2272 84.4731 17.2272C84.1359 17.2272 83.8715 17.2994 83.6799 17.4438C83.4883 17.5883 83.3537 17.7425 83.2758 17.9065L82.6053 17.6722C82.7251 17.3989 82.8847 17.1862 83.0843 17.0339C83.2858 16.8797 83.5053 16.7724 83.7428 16.7119C83.9822 16.6494 84.2177 16.6182 84.4492 16.6182C84.5968 16.6182 84.7665 16.6357 84.958 16.6709C85.1516 16.704 85.3382 16.7733 85.5178 16.8787C85.6994 16.9842 85.85 17.1432 85.9698 17.356C86.0895 17.5688 86.1493 17.8537 86.1493 18.211V21.174H85.4429V20.565H85.407C85.3591 20.6626 85.2793 20.767 85.1676 20.8783C85.0558 20.9896 84.9072 21.0842 84.7216 21.1623C84.536 21.2404 84.3095 21.2794 84.0421 21.2794ZM84.1499 20.6587C84.4292 20.6587 84.6647 20.605 84.8563 20.4977C85.0498 20.3903 85.1955 20.2517 85.2933 20.0819C85.3931 19.9121 85.4429 19.7335 85.4429 19.5461V18.9137C85.413 18.9488 85.3472 18.981 85.2454 19.0103C85.1456 19.0376 85.0299 19.062 84.8982 19.0835C84.7685 19.103 84.6417 19.1206 84.518 19.1362C84.3963 19.1498 84.2975 19.1616 84.2217 19.1713C84.0381 19.1947 83.8665 19.2328 83.7069 19.2855C83.5492 19.3363 83.4215 19.4134 83.3237 19.5168C83.2279 19.6183 83.18 19.7569 83.18 19.9326C83.18 20.1727 83.2708 20.3542 83.4524 20.4772C83.636 20.5982 83.8685 20.6587 84.1499 20.6587Z" fill="#A5A2A2"/>
<path d="M88.1451 15.1776V21.174H87.4387V15.1776H88.1451Z" fill="#A5A2A2"/>
<path d="M93.1625 21.2794C92.8712 21.2794 92.6068 21.2257 92.3693 21.1184C92.1319 21.0091 91.9433 20.8519 91.8036 20.647C91.6639 20.4401 91.5941 20.1902 91.5941 19.8974C91.5941 19.6398 91.646 19.4309 91.7497 19.2709C91.8535 19.1089 91.9922 18.982 92.1658 18.8902C92.3394 18.7985 92.531 18.7302 92.7405 18.6853C92.952 18.6384 93.1645 18.6013 93.3781 18.574C93.6574 18.5389 93.8839 18.5125 94.0575 18.495C94.2331 18.4754 94.3608 18.4432 94.4407 18.3983C94.5225 18.3534 94.5634 18.2754 94.5634 18.1641V18.1407C94.5634 17.8518 94.4826 17.6273 94.3209 17.4673C94.1613 17.3072 93.9188 17.2272 93.5936 17.2272C93.2563 17.2272 92.9919 17.2994 92.8004 17.4438C92.6088 17.5883 92.4741 17.7425 92.3963 17.9065L91.7258 17.6722C91.8455 17.3989 92.0052 17.1862 92.2047 17.0339C92.4062 16.8797 92.6258 16.7724 92.8632 16.7119C93.1027 16.6494 93.3381 16.6182 93.5696 16.6182C93.7173 16.6182 93.8869 16.6357 94.0785 16.6709C94.272 16.704 94.4586 16.7733 94.6382 16.8787C94.8198 16.9842 94.9705 17.1432 95.0902 17.356C95.2099 17.5688 95.2698 17.8537 95.2698 18.211V21.174H94.5634V20.565H94.5275C94.4796 20.6626 94.3998 20.767 94.288 20.8783C94.1763 20.9896 94.0276 21.0842 93.842 21.1623C93.6564 21.2404 93.4299 21.2794 93.1625 21.2794ZM93.2703 20.6587C93.5497 20.6587 93.7851 20.605 93.9767 20.4977C94.1703 20.3903 94.3159 20.2517 94.4137 20.0819C94.5135 19.9121 94.5634 19.7335 94.5634 19.5461V18.9137C94.5335 18.9488 94.4676 18.981 94.3658 19.0103C94.2661 19.0376 94.1503 19.062 94.0186 19.0835C93.8889 19.103 93.7622 19.1206 93.6385 19.1362C93.5167 19.1498 93.418 19.1616 93.3421 19.1713C93.1586 19.1947 92.9869 19.2328 92.8273 19.2855C92.6697 19.3363 92.5419 19.4134 92.4442 19.5168C92.3484 19.6183 92.3005 19.7569 92.3005 19.9326C92.3005 20.1727 92.3913 20.3542 92.5729 20.4772C92.7565 20.5982 92.9889 20.6587 93.2703 20.6587Z" fill="#A5A2A2"/>
<path d="M98.415 22.9542C98.0737 22.9542 97.7804 22.9113 97.5349 22.8254C97.2895 22.7414 97.085 22.6302 96.9213 22.4916C96.7597 22.3549 96.631 22.2086 96.5352 22.0524L97.0979 21.6659C97.1618 21.7479 97.2426 21.8416 97.3404 21.947C97.4382 22.0543 97.5719 22.1471 97.7415 22.2251C97.9131 22.3052 98.1376 22.3452 98.415 22.3452C98.7861 22.3452 99.0924 22.2574 99.3339 22.0817C99.5753 21.906 99.6961 21.6308 99.6961 21.256V20.3425H99.6362C99.5843 20.4245 99.5105 20.526 99.4147 20.647C99.3209 20.7661 99.1852 20.8724 99.0076 20.9661C98.832 21.0579 98.5945 21.1037 98.2952 21.1037C97.9241 21.1037 97.5908 21.0179 97.2955 20.8461C97.0021 20.6743 96.7697 20.4245 96.5981 20.0965C96.4284 19.7686 96.3436 19.3704 96.3436 18.9019C96.3436 18.4413 96.4264 18.0402 96.5921 17.6986C96.7577 17.355 96.9882 17.0896 97.2835 16.9022C97.5788 16.7128 97.9201 16.6182 98.3072 16.6182C98.6065 16.6182 98.844 16.667 99.0196 16.7646C99.1972 16.8602 99.3329 16.9695 99.4267 17.0925C99.5225 17.2135 99.5963 17.3131 99.6482 17.3911H99.72V16.6767H100.402V21.3028C100.402 21.6893 100.313 22.0036 100.133 22.2456C99.9555 22.4896 99.716 22.6682 99.4147 22.7815C99.1154 22.8966 98.7821 22.9542 98.415 22.9542ZM98.391 20.483C98.6744 20.483 98.9138 20.4196 99.1094 20.2927C99.3049 20.1658 99.4536 19.9833 99.5554 19.7452C99.6572 19.5071 99.708 19.2221 99.708 18.8902C99.708 18.5662 99.6582 18.2802 99.5584 18.0324C99.4586 17.7845 99.3109 17.5902 99.1154 17.4497C98.9198 17.3092 98.6784 17.2389 98.391 17.2389C98.0917 17.2389 97.8422 17.3131 97.6427 17.4614C97.4451 17.6098 97.2965 17.8089 97.1967 18.0587C97.0989 18.3086 97.05 18.5857 97.05 18.8902C97.05 19.2025 97.0999 19.4787 97.1997 19.7188C97.3015 19.957 97.4511 20.1444 97.6487 20.281C97.8482 20.4157 98.0957 20.483 98.391 20.483Z" fill="#A5A2A2"/>
<path d="M103.623 21.2677C103.18 21.2677 102.798 21.1721 102.477 20.9808C102.158 20.7875 101.911 20.5182 101.737 20.1727C101.566 19.8252 101.48 19.4212 101.48 18.9605C101.48 18.4998 101.566 18.0938 101.737 17.7425C101.911 17.3892 102.153 17.114 102.462 16.9168C102.773 16.7177 103.136 16.6182 103.551 16.6182C103.791 16.6182 104.027 16.6572 104.261 16.7353C104.494 16.8134 104.707 16.9402 104.898 17.1159C105.09 17.2896 105.243 17.52 105.356 17.8069C105.47 18.0938 105.527 18.4471 105.527 18.8668V19.1596H101.983V18.5623H104.809C104.809 18.3086 104.757 18.0821 104.653 17.883C104.551 17.6839 104.405 17.5268 104.216 17.4116C104.028 17.2965 103.807 17.2389 103.551 17.2389C103.27 17.2389 103.027 17.3072 102.821 17.4438C102.617 17.5785 102.461 17.7542 102.351 17.9709C102.241 18.1875 102.186 18.4198 102.186 18.6677V19.0659C102.186 19.4055 102.246 19.6935 102.366 19.9296C102.488 20.1639 102.656 20.3425 102.872 20.4655C103.087 20.5865 103.338 20.647 103.623 20.647C103.809 20.647 103.976 20.6216 104.126 20.5709C104.278 20.5182 104.408 20.4401 104.518 20.3366C104.628 20.2312 104.713 20.1004 104.773 19.9443L105.455 20.1317C105.383 20.3581 105.263 20.5572 105.093 20.729C104.923 20.8988 104.714 21.0315 104.464 21.1272C104.215 21.2209 103.935 21.2677 103.623 21.2677Z" fill="#A5A2A2"/>
<path d="M107.308 18.4686V21.174H106.602V16.6767H107.284V17.3794H107.344C107.452 17.151 107.615 16.9676 107.835 16.829C108.054 16.6884 108.338 16.6182 108.685 16.6182C108.996 16.6182 109.268 16.6806 109.502 16.8055C109.735 16.9285 109.917 17.1159 110.047 17.3677C110.176 17.6176 110.241 17.9338 110.241 18.3164V21.174H109.535V18.3632C109.535 18.0099 109.441 17.7347 109.254 17.5375C109.066 17.3384 108.809 17.2389 108.481 17.2389C108.256 17.2389 108.054 17.2867 107.877 17.3824C107.701 17.478 107.562 17.6176 107.461 17.801C107.359 17.9845 107.308 18.2071 107.308 18.4686Z" fill="#A5A2A2"/>
<path d="M113.4 21.2677C112.969 21.2677 112.598 21.1682 112.286 20.9691C111.975 20.77 111.736 20.4957 111.568 20.1463C111.4 19.7969 111.317 19.3977 111.317 18.9488C111.317 18.492 111.402 18.089 111.574 17.7396C111.748 17.3882 111.989 17.114 112.298 16.9168C112.61 16.7177 112.973 16.6182 113.388 16.6182C113.711 16.6182 114.003 16.6767 114.262 16.7938C114.521 16.911 114.734 17.0749 114.9 17.2857C115.065 17.4965 115.168 17.7425 115.208 18.0236H114.501C114.448 17.8186 114.328 17.6371 114.142 17.479C113.959 17.3189 113.711 17.2389 113.4 17.2389C113.125 17.2389 112.883 17.3092 112.676 17.4497C112.47 17.5883 112.309 17.7845 112.194 18.0382C112.08 18.29 112.023 18.5857 112.023 18.9254C112.023 19.2728 112.079 19.5754 112.191 19.833C112.304 20.0907 112.464 20.2908 112.67 20.4333C112.877 20.5757 113.121 20.647 113.4 20.647C113.584 20.647 113.75 20.6158 113.9 20.5533C114.049 20.4908 114.176 20.401 114.28 20.2839C114.384 20.1668 114.458 20.0263 114.501 19.8623H115.208C115.168 20.1278 115.069 20.3669 114.912 20.5796C114.756 20.7905 114.549 20.9583 114.292 21.0833C114.036 21.2062 113.739 21.2677 113.4 21.2677Z" fill="#A5A2A2"/>
<path d="M116.695 22.8605C116.576 22.8605 116.469 22.8507 116.375 22.8312C116.281 22.8137 116.217 22.7961 116.181 22.7785L116.36 22.1695C116.532 22.2125 116.684 22.2281 116.815 22.2164C116.947 22.2046 117.064 22.1471 117.165 22.0436C117.269 21.9421 117.364 21.7772 117.45 21.5488L117.582 21.1974L115.881 16.6767H116.648L117.917 20.2605H117.965L119.234 16.6767H120L118.048 21.8299C117.961 22.0622 117.852 22.2544 117.722 22.4067C117.592 22.5609 117.442 22.6751 117.27 22.7492C117.101 22.8234 116.909 22.8605 116.695 22.8605Z" fill="#A5A2A2"/>
</svg>
