<svg width="42" height="42" viewBox="0 0 42 42" fill="none" xmlns="http://www.w3.org/2000/svg">
<rect x="0.5" y="0.5" width="41" height="41" rx="9.5" fill="white"/>
<rect x="0.5" y="0.5" width="41" height="41" rx="9.5" stroke="#C6B89E"/>
<path d="M27.9772 13.4404C27.656 13.4404 27.3945 13.7019 27.3945 14.0231C27.3945 14.3443 27.656 14.6057 27.9772 14.6057C28.2985 14.6057 28.5598 14.3444 28.5598 14.0231C28.5598 13.7018 28.2985 13.4404 27.9772 13.4404Z" fill="#070606"/>
<path d="M21.0014 15.835C18.1532 15.835 15.8359 18.1522 15.8359 21.0004C15.8359 23.8486 18.1532 26.1659 21.0014 26.1659C23.8496 26.1659 26.1669 23.8487 26.1669 21.0004C26.1669 18.1522 23.8496 15.835 21.0014 15.835Z" fill="#070606"/>
<path d="M26.4208 9H15.5792C11.9514 9 9 11.9514 9 15.5793V26.4208C9 30.0486 11.9514 33 15.5792 33H26.4208C30.0486 33 33 30.0486 33 26.4208V15.5793C33 11.9514 30.0486 9 26.4208 9ZM21 27.5828C17.3702 27.5828 14.4173 24.6298 14.4173 21C14.4173 17.3702 17.3703 14.4173 21 14.4173C24.6297 14.4173 27.5828 17.3703 27.5828 21C27.5828 24.6297 24.6297 27.5828 21 27.5828ZM27.9765 16.0236C26.8737 16.0236 25.9765 15.1264 25.9765 14.0236C25.9765 12.9208 26.8737 12.0236 27.9765 12.0236C29.0792 12.0236 29.9764 12.9208 29.9764 14.0235C29.9764 15.1263 29.0792 16.0236 27.9765 16.0236Z" fill="#070606"/>
</svg>
