<svg width="42" height="42" viewBox="0 0 42 42" fill="none" xmlns="http://www.w3.org/2000/svg">
<path d="M27.9767 13.4414C27.6555 13.4414 27.394 13.7028 27.394 14.0241C27.394 14.3453 27.6555 14.6067 27.9767 14.6067C28.298 14.6067 28.5594 14.3453 28.5594 14.0241C28.5594 13.7028 28.298 13.4414 27.9767 13.4414Z" fill="#C6B89E"/>
<path d="M21.0002 15.834C18.1519 15.834 15.8347 18.1512 15.8347 20.9994C15.8347 23.8476 18.1519 26.1649 21.0002 26.1649C23.8484 26.1649 26.1656 23.8477 26.1656 20.9995C26.1656 18.1513 23.8484 15.834 21.0002 15.834Z" fill="#C6B89E"/>
<path d="M26.4208 9H15.5792C11.9514 9 9 11.9514 9 15.5793V26.4208C9 30.0486 11.9514 33 15.5792 33H26.4208C30.0486 33 33 30.0486 33 26.4208V15.5793C33 11.9514 30.0486 9 26.4208 9ZM21 27.5828C17.3702 27.5828 14.4173 24.6298 14.4173 21C14.4173 17.3702 17.3703 14.4173 21 14.4173C24.6297 14.4173 27.5828 17.3703 27.5828 21C27.5828 24.6297 24.6297 27.5828 21 27.5828ZM27.9765 16.0236C26.8737 16.0236 25.9765 15.1264 25.9765 14.0236C25.9765 12.9208 26.8737 12.0236 27.9765 12.0236C29.0792 12.0236 29.9764 12.9208 29.9764 14.0235C29.9764 15.1263 29.0792 16.0236 27.9765 16.0236Z" fill="#C6B89E"/>
<rect x="0.5" y="0.5" width="41" height="41" rx="9.5" stroke="#C6B89E"/>
</svg>
