<svg width="160" height="35" viewBox="0 0 160 35" fill="none" xmlns="http://www.w3.org/2000/svg">
<g clip-path="url(#clip0_722_7969)">
<path d="M24.6649 8.29476V0C24.6649 0 8.52344 10.8795 5.14215 13.1669C2.84915 14.718 2.41089 16.8083 2.41089 17.668C2.41089 18.5277 2.6465 20.2639 4.09663 22.1018C6.01868 20.8207 24.6649 8.29476 24.6649 8.29476Z" fill="#006E32"/>
<path d="M20.7534 12.8457L0 26.6191V34.7785C0 34.7785 17.7697 22.944 19.8264 21.578C21.883 20.212 22.3487 18.358 22.3388 16.8406C22.3213 14.4136 20.7534 12.8457 20.7534 12.8457Z" fill="#006E32"/>
<path d="M37.5786 14.4807L39.1466 11.6316C39.1466 11.6316 37.6971 10.7383 34.9147 10.7383C32.1322 10.7383 29.0567 12.0867 29.0139 15.3741C28.9802 18.0036 31.2732 18.3921 32.689 18.8136C34.1048 19.235 34.7962 19.2855 34.7962 20.162C34.7962 21.0385 33.7002 21.1662 33.3467 21.1732C31.762 21.2068 29.7558 19.8416 29.7558 19.8416L28.0532 22.9599C28.0532 22.9599 30.2116 24.4773 33.2794 24.4773C36.3473 24.4773 39.5336 23.1121 39.5336 19.5716C39.5336 16.874 37.1565 16.1994 35.5212 15.8965C34.0045 15.6153 33.5655 15.4077 33.5655 14.7163C33.5655 14.0249 34.4084 13.8566 35.1335 13.8566C36.6516 13.8573 37.5786 14.4807 37.5786 14.4807Z" fill="#231F20"/>
<path d="M41.3554 24.0735H46.008V14.9702H48.5373V11.143H46.008V7.31641H41.3722V11.143H39.8547V14.9702H41.3554V24.0735Z" fill="#231F20"/>
<path d="M48.8569 24.057H53.4934C53.4934 24.057 53.4934 20.6855 53.4934 18.1899C53.4934 15.6949 55.2465 14.8689 56.7303 14.8689C58.2133 14.8689 58.6355 15.2735 58.6355 15.2735V10.9238C54.3699 10.9238 53.5102 13.3515 53.5102 13.3515V11.1426H48.8738L48.8569 24.057Z" fill="#231F20"/>
<path d="M121.452 14.8652C119.413 14.8652 118.536 16.2985 118.536 17.7648C118.536 19.2317 119.312 20.6475 121.503 20.6475C123.694 20.6475 124.503 19.1974 124.503 17.7143C124.503 16.2305 123.492 14.8652 121.452 14.8652ZM124.301 22.7722C124.301 22.7722 123.087 24.6774 120.322 24.6774C117.557 24.6774 113.781 22.519 113.781 17.816C113.781 13.1129 117.456 10.8535 120.305 10.8535C123.154 10.8535 124.419 12.6571 124.419 12.6571V11.2406H128.953V24.2728H124.301V22.7722Z" fill="#231F20"/>
<path d="M80.0122 11.1445H75.3589C75.3589 11.1445 75.3589 16.4549 75.3589 18.8832C75.3589 21.3109 76.1176 24.5814 82.5071 24.5814C88.8967 24.5814 89.0986 20.3831 89.0986 19.1861C89.0986 17.9892 89.0986 11.2455 89.0986 11.2455H84.4622C84.4622 11.2455 84.4622 17.0117 84.4622 18.4779C84.4622 19.9449 83.9397 20.956 82.2372 20.956C80.5346 20.956 79.9947 19.9617 79.9947 18.7135C79.9954 17.4668 80.0122 11.1445 80.0122 11.1445Z" fill="#231F20"/>
<path d="M95.573 11.2283H90.9365V24.1757H95.573C95.573 24.1757 95.573 18.5449 95.573 16.8079C95.573 15.0717 96.5337 14.3635 97.6297 14.3635C98.7257 14.3635 99.5349 15.1727 99.5349 16.8416C99.5349 18.5105 99.5349 24.1582 99.5349 24.1582H104.171C104.171 24.1582 104.171 18.9824 104.171 17.3135C104.171 15.6446 104.946 14.4813 106.346 14.4813C107.746 14.4813 108.234 15.4595 108.234 16.9089C108.234 18.3584 108.234 24.175 108.234 24.175H112.786C112.786 24.175 112.786 18.1901 112.786 15.1895C112.786 12.1883 110.628 10.8398 108.47 10.8398C106.312 10.8398 104.424 12.4414 104.07 13.5374C103.884 12.4583 102.165 10.8398 99.5847 10.8398C97.0056 10.8398 95.5555 13.015 95.5555 13.015L95.573 11.2283Z" fill="#231F20"/>
<path d="M66.0361 14.7683C63.9962 14.7683 63.1197 16.2009 63.1197 17.6678C63.1197 19.1348 63.8953 20.5505 66.0866 20.5505C68.2786 20.5505 69.0878 19.1011 69.0878 17.6173C69.0878 16.1335 68.0767 14.7683 66.0361 14.7683ZM68.8683 22.6752C68.8683 22.6752 67.6545 24.5805 64.8896 24.5805C62.1247 24.5805 58.3479 22.4221 58.3479 17.719C58.3479 13.0152 62.023 10.7559 64.8728 10.7559C67.7218 10.7559 68.9861 12.5594 68.9861 12.5594V11.1429H73.5209V24.1752H68.8676L68.8683 22.6752Z" fill="#231F20"/>
<path d="M146.373 24.2764V11.2505H150.904V13.1277C150.904 13.1277 152.021 10.9434 155.032 10.9434C158.042 10.9434 160 12.4643 160 16.267C160 20.0698 160 24.2764 160 24.2764H155.371C155.371 24.2764 155.371 18.4184 155.371 16.9304C155.371 15.4417 154.788 14.568 153.251 14.568C151.714 14.568 150.904 15.5062 150.904 17.8041C150.904 20.102 150.904 24.2764 150.904 24.2764H146.373Z" fill="#231F20"/>
<path d="M130.896 24.2764V11.2505H135.428V13.1277C135.428 13.1277 136.545 10.9434 139.555 10.9434C142.566 10.9434 144.524 12.4643 144.524 16.267C144.524 20.0698 144.524 24.2764 144.524 24.2764H139.895C139.895 24.2764 139.895 18.4184 139.895 16.9304C139.895 15.4417 139.313 14.568 137.775 14.568C136.238 14.568 135.428 15.5062 135.428 17.8041C135.428 20.102 135.428 24.2764 135.428 24.2764H130.896Z" fill="#231F20"/>
</g>
<defs>
<clipPath id="clip0_722_7969">
<rect width="160" height="34.7799" fill="white"/>
</clipPath>
</defs>
</svg>
