<svg width="28" height="28" viewBox="0 0 28 28" fill="none" xmlns="http://www.w3.org/2000/svg">
<g id="Icon / Telephone" clip-path="url(#clip0_812_9013)">
<path id="Vector" d="M27.1903 21.1233L22.9177 17.3069C22.0335 16.5173 20.719 16.4803 19.7919 17.219C19.3319 17.5855 18.752 18.0485 18.0534 18.6082C17.5258 19.0309 16.8171 19.0682 16.2481 18.703C14.6751 17.6938 13.4012 16.694 12.3537 15.6463C11.306 14.5986 10.3061 13.3248 9.29701 11.752C8.93186 11.1829 8.96911 10.4742 9.3919 9.9465C9.95151 9.24793 10.4145 8.66796 10.7811 8.20804C11.5197 7.28098 11.4828 5.96641 10.6932 5.08233L6.87677 0.809551C6.4163 0.293904 5.80752 0.0141781 5.11633 0.000615597C4.42568 -0.0143141 3.8058 0.242607 3.32531 0.739552L1.21372 2.92398C-0.390093 4.58309 -0.405351 7.27098 1.16954 10.6969C2.51616 13.6261 4.94499 16.9266 8.00874 19.9904C11.0725 23.0544 14.3732 25.4834 17.3026 26.8302C18.9998 27.6105 20.5156 28.0004 21.8153 28.0004C23.1392 28.0004 24.2386 27.5956 25.076 26.7862L27.2603 24.6746C27.7575 24.1942 28.013 23.5749 27.9993 22.8837C27.9858 22.1925 27.706 21.5838 27.1903 21.1233ZM26.6523 24.0455L24.4678 26.1571C22.727 27.8398 19.8092 27.0195 17.6681 26.0352C14.8305 24.7307 11.6198 22.3642 8.62747 19.3717C5.6352 16.3794 3.26899 13.1688 1.96458 10.3313C0.980318 8.19038 0.160281 5.27281 1.84285 3.53216L3.95444 1.34778C4.26588 1.02551 4.65077 0.868286 5.09904 0.87545C5.5471 0.884255 5.92559 1.05822 6.22413 1.39246L10.0405 5.66525C10.5451 6.23022 10.5688 7.07033 10.0967 7.66281C9.73063 8.12229 9.26803 8.7016 8.70901 9.39946C8.04751 10.2251 7.98922 11.334 8.56054 12.2245C9.60392 13.8507 10.6423 15.1724 11.7349 16.2651C12.8275 17.3576 14.1492 18.396 15.7756 19.4395C16.666 20.0107 17.7749 19.9526 18.6005 19.291C19.2984 18.732 19.8777 18.2694 20.3372 17.9033C20.9296 17.4312 21.7698 17.4548 22.3348 17.9595L26.6075 21.7759C26.9417 22.0744 27.1157 22.4529 27.1245 22.901C27.1334 23.349 26.9745 23.7341 26.6523 24.0455Z" fill="white"/>
</g>
<defs>
<clipPath id="clip0_812_9013">
<rect width="28" height="28" fill="white"/>
</clipPath>
</defs>
</svg>
