<svg width="66" height="13" viewBox="0 0 66 13" fill="none" xmlns="http://www.w3.org/2000/svg">
<path d="M2.22937 12.238L3.72737 7.786L0.115367 5.364H4.53937L6.12137 0.589999L7.73137 5.364H12.1274L8.51537 7.786L10.0414 12.238L6.12137 9.396L2.22937 12.238ZM15.6688 12.238L17.1668 7.786L13.5548 5.364H17.9788L19.5608 0.589999L21.1708 5.364H25.5668L21.9548 7.786L23.4808 12.238L19.5608 9.396L15.6688 12.238ZM29.1083 12.238L30.6063 7.786L26.9943 5.364H31.4183L33.0003 0.589999L34.6103 5.364H39.0063L35.3943 7.786L36.9203 12.238L33.0003 9.396L29.1083 12.238ZM42.5477 12.238L44.0457 7.786L40.4337 5.364H44.8577L46.4397 0.589999L48.0497 5.364H52.4457L48.8337 7.786L50.3597 12.238L46.4397 9.396L42.5477 12.238Z" fill="#BAAB8F"/>
<path d="M55.9872 12.238L57.4852 7.786L53.8732 5.364H58.2972L59.8792 0.589999L61.4892 5.364H65.8852L62.2732 7.786L63.7992 12.238L59.8792 9.396L55.9872 12.238Z" fill="#DADADA"/>
</svg>
