<svg width="12" height="12" viewBox="0 0 12 12" fill="none" xmlns="http://www.w3.org/2000/svg">
<g id="Layer 2">
<path id="Vector" d="M11.5358 5.56043L6.6469 0.671546C6.53164 0.560227 6.37727 0.498631 6.21704 0.500023C6.05681 0.501415 5.90354 0.565685 5.79023 0.67899C5.67693 0.792295 5.61266 0.945569 5.61127 1.1058C5.60987 1.26603 5.67147 1.4204 5.78279 1.53566L9.62851 5.38138L1.32595 5.38138C1.16388 5.38138 1.00844 5.44576 0.893834 5.56037C0.779228 5.67497 0.714844 5.83041 0.714844 5.99249C0.714844 6.15457 0.779228 6.31001 0.893834 6.42461C1.00844 6.53922 1.16388 6.6036 1.32595 6.6036L9.62851 6.6036L5.78279 10.4493C5.72442 10.5057 5.67786 10.5731 5.64584 10.6477C5.61381 10.7222 5.59695 10.8024 5.59625 10.8836C5.59554 10.9647 5.611 11.0452 5.64173 11.1203C5.67246 11.1954 5.71783 11.2636 5.77521 11.321C5.83259 11.3784 5.90082 11.4238 5.97593 11.4545C6.05103 11.4852 6.1315 11.5007 6.21264 11.5C6.29379 11.4993 6.37398 11.4824 6.44854 11.4504C6.52309 11.4184 6.59053 11.3718 6.6469 11.3134L11.5358 6.42455C11.6504 6.30995 11.7147 6.15453 11.7147 5.99249C11.7147 5.83045 11.6504 5.67503 11.5358 5.56043Z" fill="#070606"/>
</g>
</svg>
