<svg width="14" height="14" viewBox="0 0 14 14" fill="none" xmlns="http://www.w3.org/2000/svg">
<path d="M11.8343 1.38771L1.77767 1.38771C1.54463 1.39176 1.32251 1.48717 1.15914 1.65341C0.995771 1.81964 0.904228 2.04339 0.904228 2.27646C0.904228 2.50953 0.995771 2.73328 1.15914 2.89952C1.32251 3.06575 1.54463 3.16117 1.77767 3.16522L9.68847 3.16522L1.14913 11.7046C0.982432 11.8713 0.888781 12.0973 0.888781 12.3331C0.888781 12.5688 0.982432 12.7949 1.14913 12.9616C1.31583 13.1283 1.54192 13.222 1.77767 13.222C2.01342 13.222 2.23951 13.1283 2.40621 12.9616L10.9455 4.42229L10.9455 12.3331C10.9435 12.4511 10.965 12.5683 11.0087 12.678C11.0525 12.7876 11.1176 12.8874 11.2003 12.9716C11.2831 13.0558 11.3817 13.1226 11.4906 13.1683C11.5994 13.2139 11.7163 13.2374 11.8343 13.2374C11.9523 13.2374 12.0692 13.2139 12.178 13.1683C12.2869 13.1226 12.3855 13.0558 12.4683 12.9716C12.551 12.8874 12.6161 12.7876 12.6599 12.678C12.7036 12.5683 12.7251 12.4511 12.7231 12.3331V2.27646C12.723 2.04076 12.6294 1.81472 12.4627 1.64806C12.296 1.48139 12.07 1.38774 11.8343 1.38771Z" fill="white"/>
</svg>
