<svg width="42" height="42" viewBox="0 0 42 42" fill="none" xmlns="http://www.w3.org/2000/svg">
<rect x="0.5" y="0.5" width="41" height="41" rx="9.5" fill="white"/>
<rect x="0.5" y="0.5" width="41" height="41" rx="9.5" stroke="#C6B89E"/>
<path d="M26.2208 17.2109L19.6277 22.6L19.3175 22.8541C19.2493 22.9081 19.2049 22.9865 19.1934 23.0727L19.124 23.6459L18.9334 25.2561C18.9352 25.2757 18.9291 25.2952 18.9165 25.3103C18.9039 25.3254 18.8858 25.3349 18.8662 25.3366C18.8466 25.3384 18.8271 25.3323 18.812 25.3197C18.7969 25.3071 18.7874 25.289 18.7857 25.2694L18.2494 23.6592L17.6954 22.012C17.6718 21.9382 17.6748 21.8585 17.704 21.7866C17.7332 21.7148 17.7866 21.6555 17.855 21.6191L24.7154 17.6866L26.0066 16.948C26.1942 16.8386 26.3862 17.075 26.2208 17.2109Z" fill="#070606"/>
<path d="M21 8C18.4288 8 15.9154 8.76244 13.7776 10.1909C11.6398 11.6194 9.97351 13.6497 8.98957 16.0251C8.00563 18.4006 7.74819 21.0144 8.2498 23.5362C8.7514 26.0579 9.98953 28.3743 11.8076 30.1924C13.6257 32.0105 15.9421 33.2486 18.4638 33.7502C20.9856 34.2518 23.5994 33.9944 25.9749 33.0104C28.3503 32.0265 30.3806 30.3602 31.8091 28.2224C33.2376 26.0846 34 23.5712 34 21C34 17.5522 32.6304 14.2456 30.1924 11.8076C27.7544 9.36964 24.4478 8 21 8ZM29.1088 15.5252L26.5708 26.7392C26.4511 27.2651 25.7834 27.503 25.3151 27.1824L21.4831 24.5824L19.5316 26.4275C19.452 26.5022 19.3554 26.5563 19.2502 26.5852C19.145 26.6141 19.0343 26.6168 18.9277 26.5933C18.8212 26.5697 18.722 26.5205 18.6388 26.4499C18.5556 26.3793 18.4909 26.2894 18.4502 26.1882L17.7456 24.12L17.0409 22.0518L13.2635 21.0177C13.1579 20.9947 13.0629 20.9374 12.9932 20.8547C12.9235 20.7721 12.8831 20.6687 12.8782 20.5607C12.8733 20.4527 12.9042 20.3461 12.9662 20.2575C13.0281 20.1689 13.1176 20.1033 13.2207 20.0708L27.8132 14.8132L28.082 14.7172C28.6478 14.5192 29.2328 14.9772 29.1088 15.5252Z" fill="#070606"/>
</svg>
