<svg width="42" height="42" viewBox="0 0 42 42" fill="none" xmlns="http://www.w3.org/2000/svg">
<path d="M21 8C13.8214 8 8 13.8214 8 21C8 28.1786 13.8214 34 21 34C28.1786 34 34 28.1786 34 21C34 13.8214 28.1786 8 21 8ZM27.5218 17.9467V19.7069C26.6918 19.7072 25.8854 19.5446 25.1248 19.2237C24.6357 19.0172 24.18 18.7512 23.7633 18.4297L23.7758 23.8477C23.7705 25.0677 23.2878 26.214 22.4143 27.0774C21.7033 27.7802 20.8025 28.2271 19.826 28.3718C19.5966 28.4058 19.3631 28.4232 19.127 28.4232C18.0818 28.4232 17.0894 28.0846 16.2777 27.4599C16.1249 27.3423 15.9789 27.2148 15.8398 27.0774C14.893 26.1417 14.4048 24.8734 14.487 23.5393C14.5497 22.5237 14.9563 21.5551 15.6341 20.796C16.5309 19.7915 17.7855 19.2339 19.127 19.2339C19.3631 19.2339 19.5966 19.2516 19.826 19.2856V19.9364V21.7468C19.6085 21.6751 19.3762 21.6356 19.1342 21.6356C17.9087 21.6356 16.9172 22.6355 16.9355 23.862C16.9471 24.6467 17.3758 25.3327 18.008 25.7108C18.3051 25.8885 18.6469 25.9986 19.0117 26.0186C19.2975 26.0343 19.5719 25.9945 19.826 25.9106C20.7017 25.6213 21.3333 24.7989 21.3333 23.8289L21.3362 20.2007V13.5768H23.7603C23.7627 13.817 23.787 14.0513 23.8323 14.2784C24.0153 15.1976 24.5334 15.9951 25.2545 16.5388C25.8833 17.013 26.6662 17.2941 27.5148 17.2941C27.5154 17.2941 27.5224 17.2941 27.5218 17.2936V17.9467H27.5218Z" fill="#C6B89E"/>
<rect x="0.5" y="0.5" width="41" height="41" rx="9.5" stroke="#C6B89E"/>
</svg>
