<svg width="80" height="80" viewBox="0 0 80 80" fill="none" xmlns="http://www.w3.org/2000/svg">
<circle cx="40" cy="40" r="40" fill="#DADADA"/>
<g clip-path="url(#clip0_722_6997)">
<path d="M40 10C23.4579 10 10 23.4579 10 40C10 56.5421 23.4579 70 40 70C56.5421 70 70 56.5421 70 40C70 23.4579 56.5421 10 40 10ZM40 66.25C25.5257 66.25 13.75 54.4743 13.75 40C13.75 25.5257 25.5257 13.75 40 13.75C54.4743 13.75 66.25 25.5257 66.25 40C66.25 54.4743 54.4743 66.25 40 66.25ZM55.8034 49.1406C52.5253 54.8178 46.6177 58.2072 40.0005 58.2073C33.383 58.2074 27.475 54.818 24.1967 49.1406C23.6788 48.2439 23.986 47.0971 24.8827 46.5794C25.7796 46.0615 26.9263 46.3688 27.4439 47.2654C30.0445 51.7688 34.7385 54.4574 40.0004 54.4573C45.262 54.4572 49.9557 51.7687 52.5559 47.2654C53.0737 46.3686 54.2205 46.0614 55.1172 46.5793C56.014 47.0971 56.3212 48.2438 55.8034 49.1406ZM23.9076 32.6105C23.9076 30.5419 25.5905 28.8589 27.6592 28.8589C29.7279 28.8589 31.4109 30.5418 31.4109 32.6105C31.4109 34.6792 29.7279 36.3621 27.6592 36.3621C25.5905 36.3621 23.9076 34.6792 23.9076 32.6105ZM56.0925 32.6105C56.0925 34.6791 54.4096 36.3621 52.3409 36.3621C50.2722 36.3621 48.5893 34.6792 48.5893 32.6105C48.5893 30.5418 50.2722 28.8589 52.3409 28.8589C54.4095 28.859 56.0925 30.5419 56.0925 32.6105Z" fill="white"/>
</g>
<defs>
<clipPath id="clip0_722_6997">
<rect width="60" height="60" fill="white" transform="translate(10 10)"/>
</clipPath>
</defs>
</svg>
