<svg width="42" height="42" viewBox="0 0 42 42" fill="none" xmlns="http://www.w3.org/2000/svg">
<rect x="0.5" y="0.5" width="41" height="41" rx="9.5" fill="white"/>
<rect x="0.5" y="0.5" width="41" height="41" rx="9.5" stroke="#C6B89E"/>
<path d="M23.8438 8H18.4461C13.2507 8 9 12.2507 9 17.4461V21.4944C9 25.1379 11.1254 28.4777 14.3978 30.0296V34.5502C14.3978 34.955 14.9038 35.1574 15.1737 34.8538L19.087 30.9404H23.8438C29.0392 30.9404 33.2899 26.6897 33.2899 21.4944V17.4461C33.2899 12.2507 29.0392 8 23.8438 8ZM27.3861 25.7114L26.0029 27.0608C24.5523 28.4777 20.8076 26.8584 17.5015 23.4848C14.1953 20.1112 12.7447 16.3328 14.1279 14.9159L15.4773 13.5664C15.9833 13.0604 16.8267 13.0941 17.4003 13.6002L19.3569 15.6243C20.0654 16.3328 19.7618 17.5473 18.8509 17.8172C18.2099 18.0196 17.7713 18.728 17.9738 19.369C18.3111 20.8534 20.2003 22.7426 21.6172 23.1137C22.2582 23.2486 22.9667 22.9113 23.2028 22.2703C23.5065 21.3594 24.7209 21.0895 25.3957 21.798L27.3524 23.8222C27.8921 24.2945 27.8921 25.1379 27.3861 25.7114ZM22.3594 14.4098C22.2245 14.4098 22.0895 14.4098 21.9546 14.4436C21.7185 14.4773 21.4823 14.2749 21.4486 14.0387C21.4148 13.8026 21.6172 13.5664 21.8534 13.5327C22.0221 13.499 22.1908 13.499 22.3594 13.499C24.8222 13.499 26.8463 15.5231 26.8463 17.9858C26.8463 18.1545 26.8463 18.3232 26.8126 18.4919C26.7788 18.728 26.5427 18.9304 26.3065 18.8967C26.0704 18.863 25.868 18.6268 25.9017 18.3907C25.9017 18.2557 25.9354 18.1208 25.9354 17.9858C25.9692 16.0292 24.3499 14.4098 22.3594 14.4098ZM25.0583 18.0196C25.0583 18.2557 24.8559 18.4581 24.6197 18.4581C24.3836 18.4581 24.1812 18.2557 24.1812 18.0196C24.1812 17.0412 23.3715 16.2316 22.3932 16.2316C22.157 16.2316 21.9546 16.0292 21.9546 15.793C21.9546 15.5569 22.157 15.3544 22.3932 15.3544C23.8438 15.3207 25.0583 16.5352 25.0583 18.0196ZM28.4994 19.4702C28.4319 19.7064 28.1958 19.8751 27.9259 19.8076C27.6897 19.7401 27.5548 19.504 27.6222 19.2678C27.7234 18.863 27.7572 18.4581 27.7572 18.0196C27.7572 15.0508 25.3282 12.6218 22.3594 12.6218C22.2245 12.6218 22.0895 12.6218 21.9546 12.6218C21.7185 12.6218 21.4823 12.4531 21.4823 12.217C21.4823 11.9808 21.651 11.7447 21.8871 11.7447C22.0558 11.7447 22.2245 11.711 22.3594 11.711C25.8342 11.711 28.6681 14.5448 28.6681 18.0196C28.6681 18.4919 28.6006 18.9979 28.4994 19.4702Z" fill="#070606"/>
</svg>
