<svg width="42" height="42" viewBox="0 0 42 42" fill="none" xmlns="http://www.w3.org/2000/svg">
<rect x="0.5" y="0.5" width="41" height="41" rx="9.5" fill="white"/>
<rect x="0.5" y="0.5" width="41" height="41" rx="9.5" stroke="#C6B89E"/>
<path d="M21.0033 8H20.9967C13.8289 8 8 13.8305 8 21C8 23.8438 8.9165 26.4795 10.4749 28.6196L8.85475 33.4491L13.8516 31.8518C15.9072 33.2135 18.3594 34 21.0033 34C28.1711 34 34 28.1679 34 21C34 13.8321 28.1711 8 21.0033 8ZM28.5676 26.3576C28.254 27.2432 27.0093 27.9777 26.0164 28.1922C25.3371 28.3369 24.4499 28.4523 21.4631 27.214C17.6427 25.6313 15.1825 21.7491 14.9908 21.4972C14.8071 21.2454 13.447 19.4416 13.447 17.5761C13.447 15.7106 14.3944 14.8023 14.7762 14.4123C15.0899 14.0921 15.6082 13.9459 16.1055 13.9459C16.2664 13.9459 16.411 13.954 16.541 13.9605C16.9229 13.9767 17.1146 13.9995 17.3665 14.6024C17.6801 15.358 18.4439 17.2235 18.5349 17.4152C18.6275 17.607 18.7201 17.867 18.5901 18.1189C18.4683 18.3789 18.361 18.4942 18.1692 18.7153C17.9775 18.9362 17.7955 19.1053 17.6038 19.3425C17.4282 19.5489 17.23 19.7699 17.451 20.1518C17.672 20.5255 18.4358 21.7719 19.5602 22.7729C21.0114 24.0647 22.1879 24.4775 22.6087 24.653C22.9224 24.783 23.2961 24.7521 23.5252 24.5084C23.8161 24.1947 24.1752 23.6748 24.5409 23.1629C24.8009 22.7956 25.1291 22.7501 25.4736 22.8801C25.8246 23.002 27.682 23.9201 28.0639 24.1102C28.4457 24.302 28.6976 24.393 28.7902 24.5539C28.8813 24.7148 28.8812 25.4704 28.5676 26.3576Z" fill="#070606"/>
</svg>
