<svg width="42" height="42" viewBox="0 0 42 42" fill="none" xmlns="http://www.w3.org/2000/svg">
<rect x="0.5" y="0.5" width="41" height="41" rx="9.5" fill="white"/>
<rect x="0.5" y="0.5" width="41" height="41" rx="9.5" stroke="#C6B89E"/>
<path d="M19.3789 23.4355L23.6076 21L19.3789 18.5645V23.4355Z" fill="#070606"/>
<path d="M21 8C13.8214 8 8 13.8214 8 21C8 28.1786 13.8214 34 21 34C28.1786 34 34 28.1786 34 21C34 13.8214 28.1786 8 21 8ZM29.123 21.0133C29.123 21.0133 29.123 23.6497 28.7886 24.9211C28.6011 25.6169 28.0524 26.1656 27.3566 26.3529C26.0853 26.6875 21 26.6875 21 26.6875C21 26.6875 15.928 26.6875 14.6434 26.3396C13.9476 26.1523 13.3989 25.6034 13.2114 24.9076C12.8768 23.6497 12.8768 21 12.8768 21C12.8768 21 12.8768 18.3637 13.2114 17.0924C13.3987 16.3966 13.9608 15.8344 14.6434 15.6471C15.9147 15.3125 21 15.3125 21 15.3125C21 15.3125 26.0853 15.3125 27.3566 15.6604C28.0524 15.8477 28.6011 16.3966 28.7886 17.0924C29.1365 18.3637 29.123 21.0133 29.123 21.0133Z" fill="#070606"/>
</svg>
